<?xml version="1.0" encoding="UTF-8" standalone="no"?>
<!-- Created with Inkscape (http://www.inkscape.org/) -->

<svg
   width="201.11282mm"
   height="201.08336mm"
   viewBox="0 0 201.11282 201.08336"
   version="1.1"
   id="svg1"
   xml:space="preserve"
   xmlns:inkscape="http://www.inkscape.org/namespaces/inkscape"
   xmlns:sodipodi="http://sodipodi.sourceforge.net/DTD/sodipodi-0.dtd"
   xmlns="http://www.w3.org/2000/svg"
   xmlns:svg="http://www.w3.org/2000/svg"><sodipodi:namedview
     id="namedview1"
     pagecolor="#505050"
     bordercolor="#eeeeee"
     borderopacity="1"
     inkscape:showpageshadow="0"
     inkscape:pageopacity="0"
     inkscape:pagecheckerboard="0"
     inkscape:deskcolor="#505050"
     inkscape:document-units="mm"
     inkscape:export-bgcolor="#ffffff00"><inkscape:page
       x="0"
       y="-4.585625e-14"
       width="201.11282"
       height="201.08334"
       id="page2"
       margin="0"
       bleed="0" /></sodipodi:namedview><defs
     id="defs1" /><g
     inkscape:label="Capa 1"
     inkscape:groupmode="layer"
     id="layer1"
     transform="translate(220.4274,-31.750003)"><path
       style="fill:#000000;fill-opacity:1"
       d="m -127.69095,229.73769 -2.51354,-0.23902 -2.38125,-0.30001 -2.38125,-0.30001 -2.51355,-0.50787 -2.51354,-0.50788 -3.83646,-1.05332 -3.83645,-1.05331 -3.04271,-1.15987 -3.04271,-1.15986 -4.10104,-1.98897 -4.10104,-1.98897 -2.91042,-1.77024 -2.91041,-1.77024 -2.64584,-1.87796 -2.64583,-1.87796 -2.77503,-2.26523 -2.77502,-2.26523 -3.01133,-2.91042 -3.01133,-2.91042 -2.45334,-2.91041 -2.45333,-2.91042 -2.13078,-2.97966 -2.13078,-2.97967 -2.18869,-3.63492 -2.18869,-3.63492 -1.5012,-3.30729 -1.50119,-3.30729 -1.18324,-3.30729 -1.18325,-3.30729 -0.95631,-3.3073 -0.95632,-3.30729 -0.66727,-3.39481 -0.66727,-3.39481 v -1.11319 -1.11319 l 0.59531,-1.18054 0.59531,-1.18054 1.5875,-0.79314 1.5875,-0.79314 30.69167,0.0558 30.69166,0.0558 2.16509,-0.26012 2.16509,-0.26011 2.00677,-0.65508 2.00678,-0.65508 1.68556,-1.06453 1.68556,-1.06453 1.31821,-1.91317 1.31821,-1.91318 0.67238,-1.33422 0.67239,-1.33421 0.46184,-1.5762 0.46183,-1.5762 0.006,-3.175 0.006,-3.175 -0.47971,-2.51354 -0.47971,-2.51355 -1.03343,-3.13767 -1.03343,-3.13767 -0.81923,-1.62483 -0.81922,-1.62483 -1.05921,-1.5875 -1.05921,-1.5875 -0.64845,-0.70106 -0.64845,-0.70107 -3.74623,-0.0149 -3.74624,-0.0149 -1.92024,-0.27559 -1.92024,-0.27559 -1.25476,-0.27366 -1.25476,-0.27366 -1.71979,-0.55227 -1.71979,-0.55227 -2.85369,-1.4689 -2.85369,-1.4689 -2.25055,-2.10563 -2.25055,-2.10563 -1.15359,-1.619481 -1.15358,-1.619477 -1.20255,-2.401822 -1.20255,-2.401821 -0.569,-1.434637 -0.56899,-1.434637 -0.74706,-3.307292 -0.74705,-3.307292 -0.31586,-2.732523 -0.31587,-2.732524 0.11426,-1.57967 0.11426,-1.579671 0.84649,-0.847181 0.84648,-0.847181 3.08322,-0.09002 3.08322,-0.09002 2.13791,0.302593 2.13791,0.302593 3.83646,0.775905 3.83645,0.775905 2.44662,0.793254 2.44661,0.793254 1.65443,0.82885 1.65443,0.828851 1.76285,1.164698 1.76285,1.164699 1.3254,1.191656 1.32541,1.191656 1.34567,1.815205 1.34567,1.815205 1.21283,2.560327 1.21284,2.560327 0.52636,2.563779 0.52637,2.563779 0.17687,3.968753 0.17687,3.96875 1.45521,2.31466 1.45521,2.31467 0.3059,4.4e-4 0.3059,4.4e-4 0.17242,-1.38907 0.17242,-1.38906 0.39376,-2.20229 0.39375,-2.20229 1.31074,-4.048194 1.31073,-4.048195 v -0.471236 -0.471237 l -0.90589,-2.803279 -0.90588,-2.803278 -0.41619,-2.38125 -0.41618,-2.381251 -8.5e-4,-3.206488 -8.4e-4,-3.206488 0.3889,-2.21747 0.38891,-2.21747 0.77676,-2.290894 0.77676,-2.290894 1.22203,-2.36608 1.22203,-2.366081 1.72612,-2.089901 1.72611,-2.089901 2.03775,-1.81183 2.03775,-1.81183 1.98438,-1.319736 1.98437,-1.319735 3.70417,-1.799738 3.704173,-1.799737 2.64583,-0.946015 2.64583,-0.946014 2.38125,-0.666313 2.38125,-0.666313 5.29167,-1.236222 5.29167,-1.236222 2.07217,-0.02536 2.07217,-0.02536 0.63512,0.736911 0.63512,0.736911 0.4008,1.379756 0.4008,1.379756 0.25718,1.984375 0.25717,1.984375 0.007,3.836458 0.007,3.836458 -0.50693,3.445498 -0.50694,3.445498 -0.56182,2.243044 -0.56182,2.243044 -0.68737,2.116667 -0.68737,2.116667 -1.18228,2.367975 -1.18228,2.367976 -1.21881,1.865358 -1.21881,1.865357 -2.78688,2.797037 -2.78687,2.797037 -2.3514,1.527962 -2.3514,1.527961 -1.82988,0.918354 -1.82989,0.918355 -3.10924,1.020983 -3.10924,1.020983 -2.767013,0.533978 -2.76701,0.533978 -3.53728,0.331301 -3.53728,0.3313 -0.48919,0.411011 -0.48918,0.411011 -0.90867,3.184367 -0.90868,3.18437 -0.39972,1.97501 -0.39973,1.975 -0.45283,4.10104 -0.45283,4.10105 0.31371,7.40833 0.31371,7.40834 -0.28429,3.57188 -0.28428,3.57187 -0.36817,1.45521 -0.36818,1.45521 -0.57934,1.5465 -0.57933,1.5465 -1.53812,2.29952 -1.53812,2.29951 -2.22135,2.13258 -2.22135,2.13259 -1.91227,1.13606 -1.91227,1.13606 -1.77432,0.64413 -1.77432,0.64412 -2.11666,0.56408 -2.11667,0.56408 -29.0161,0.1438 -29.01611,0.1438 -0.21117,0.21131 -0.21117,0.2113 0.45965,2.23306 0.45966,2.23306 0.89465,2.8473 0.89465,2.84731 0.83719,2.11666 0.83718,2.11667 2.25621,4.36562 2.25621,4.36563 0.33504,0.39687 0.33505,0.39688 0.75424,1.32292 0.75423,1.32291 1.36221,1.85209 1.36221,1.85208 1.5681,1.87478 1.56809,1.87478 1.84229,2.04118 1.84228,2.04119 3.46734,3.14822 3.46734,3.14822 2.2212,1.67478 2.2212,1.67479 4.23333,2.40468 4.23334,2.40468 1.59125,0.80106 1.59126,0.80106 2.77437,1.18225 2.77436,1.18225 5.15938,1.49417 5.15937,1.49416 3.60523,0.64333 3.60523,0.64333 3.9354,0.31224 3.93539,0.31224 3.70416,-0.16358 3.70417,-0.16359 3.38358,-0.39674 3.38359,-0.39674 2.83412,-0.64193 2.83413,-0.64192 3.886413,-1.20885 3.8864,-1.20885 4.0511,-1.72075 4.05109,-1.72075 2.51354,-1.41102 2.51354,-1.41101 1.98438,-1.15523 1.98437,-1.15524 2.24896,-1.7151 2.24896,-1.7151 1.98309,-1.60724 1.98309,-1.60725 1.95436,-1.85208 1.95437,-1.85209 2.4394,-2.77812 2.43939,-2.77813 2.31698,-3.175 2.31698,-3.175 2.19232,-3.70416 2.19232,-3.70417 1.25292,-2.77813 1.25292,-2.77812 1.02256,-2.85238 1.02257,-2.85237 0.81195,-3.04246 0.81195,-3.04246 -0.083,-0.71975 -0.083,-0.71975 -28.95983,-0.0673 -28.959823,-0.0673 -0.23609,-0.23609 -0.23609,-0.23609 1.08109,-1.01951 1.0811,-1.0195 1.634943,-0.99016 1.63495,-0.99016 2.13821,-0.828 2.1382,-0.82801 5.15938,-1.34071 5.15937,-1.34071 22.62188,-0.0135 22.62187,-0.0135 1.30725,0.65888 1.30725,0.65888 0.51229,0.70341 0.51228,0.70341 0.12346,1.81014 0.12346,1.81013 -0.56322,2.77812 -0.56322,2.77813 -0.9322,3.36158 -0.93221,3.36158 -0.88839,2.59154 -0.88838,2.59155 -1.05943,2.51354 -1.05943,2.51354 -0.95248,2.07688 -0.95248,2.07687 -1.35125,2.28875 -1.35125,2.28875 -2.12578,3.175 -2.12579,3.175 -1.05123,1.42606 -1.05123,1.42607 -2.31581,2.67498 -2.31581,2.67498 -3.27091,3.19087 -3.2709,3.19087 -2.51355,1.99058 -2.51354,1.99058 -2.24796,1.54549 -2.24796,1.54549 -3.70516,2.24801 -3.70517,2.248 -3.43958,1.6491 -3.43958,1.64909 -2.51354,0.93095 -2.51355,0.93095 -4.03059,1.21907 -4.03059,1.21906 -2.891003,0.63944 -2.891,0.63943 -3.52945,0.42078 -3.52945,0.42078 -6.21771,0.10634 -6.2177,0.10634 z m -10.58334,-126.00768 v -0.33735 l -1.91823,-1.87045 -1.91822,-1.870446 -3.43959,-2.864734 -3.43958,-2.864734 -1.12448,-1.067974 -1.12448,-1.067974 v -0.999071 -0.999071 l 0.77219,-0.86407 0.77219,-0.86407 1.17324,0.02445 1.17325,0.02445 1.5603,0.892206 1.56029,0.892206 3.04271,2.32263 3.04271,2.32263 1.78803,1.631362 1.78803,1.631361 0.17373,-0.17373 0.17373,-0.173731 -0.45704,-1.654208 -0.45704,-1.654208 -0.93384,-1.948341 -0.93383,-1.948341 -1.89381,-1.912233 -1.8938,-1.912234 -1.89826,-1.100373 -1.89827,-1.100374 -2.00572,-0.80313 -2.00572,-0.80313 -2.04913,-0.504446 -2.04914,-0.504445 -2.81208,-0.412206 -2.81209,-0.412206 h -0.96653 -0.96654 l -0.17397,0.453372 -0.17398,0.453371 0.60112,2.920067 0.60112,2.920066 0.66966,1.984375 0.66967,1.984375 0.95838,1.852083 0.95838,1.852083 2.25259,2.355902 2.2526,2.355902 1.56675,1.020369 1.56675,1.02036 2.11671,0.66867 2.1167,0.66867 2.00508,0.36309 2.00509,0.36309 0.99219,0.0237 0.99218,0.0237 z m 32.80833,-14.090578 2.51354,-0.402882 1.97525,-0.536929 1.975253,-0.53693 2.12579,-0.930039 2.1258,-0.93004 2.10783,-1.230542 2.10784,-1.230542 1.78556,-1.684401 1.78555,-1.684402 1.73014,-2.32368 1.73013,-2.323679 1.04298,-2.225653 1.04297,-2.225652 0.79151,-2.372623 0.7915,-2.372622 0.40818,-2.38125 0.40817,-2.38125 0.26749,-3.042709 0.2675,-3.042708 -0.002,-1.719792 -0.002,-1.719792 -0.23128,-0.365157 -0.23128,-0.365158 -1.28602,0.189231 -1.28603,0.189232 -3.96875,1.013225 -3.96875,1.013224 -3.75231,1.32465 -3.75231,1.32465 -2.68091,1.377089 -2.680913,1.377089 -1.90115,1.251373 -1.90116,1.251373 -1.30669,1.162715 -1.3067,1.162715 -1.57625,2.116666 -1.57625,2.116667 -1.01281,2.116667 -1.01282,2.116667 -0.42731,1.5875 -0.42732,1.5875 -0.13033,3.175 -0.13032,3.175 0.23191,1.058333 0.23191,1.058333 h 0.30158 0.30157 l 1.38627,-1.984375 1.38626,-1.984375 2.00419,-2.513541 2.0042,-2.513542 3.17529,-3.144479 3.17529,-3.14448 2.381253,-1.996439 2.38125,-1.996439 1.56237,-1.010644 1.56238,-1.010644 h 1.03766 1.03767 l 0.75985,0.759847 0.75985,0.759848 0.17452,0.695361 0.17452,0.69536 -0.17254,0.727605 -0.17254,0.727604 -6.06392,5.953125 -6.063923,5.953125 -1.28461,1.5875 -1.28462,1.5875 -2.29719,3.28079 -2.29719,3.28079 v 0.489523 0.489522 l 0.33073,-0.0011 0.33073,-0.0011 z m -41.53958,117.884688 -2.77812,-1.00937 -2.24896,-1.11221 -2.24895,-1.11222 -1.32292,-0.81211 -1.32292,-0.81212 -2.91041,-1.91871 -2.91042,-1.9187 -2.64583,-2.2306 -2.64584,-2.2306 -3.19866,-3.296 -3.19867,-3.296 -1.87282,-2.49729 -1.87283,-2.49729 -2.02998,-3.175 -2.02999,-3.175 -1.15644,-2.40246 -1.15644,-2.40246 -0.17004,-1.06336 -0.17004,-1.06335 0.41903,-0.8103 0.41902,-0.8103 0.70257,-0.55264 0.70257,-0.55264 0.98275,-0.29444 0.98275,-0.29444 1.21769,0.53864 1.21768,0.53864 1.36901,2.73247 1.36901,2.73248 1.21617,2.11666 1.21618,2.11667 2.3402,3.11244 2.3402,3.11244 1.8449,1.98973 1.8449,1.98972 2.30439,2.14342 2.30439,2.14342 1.98438,1.49457 1.98437,1.49457 1.71979,1.0911 1.7198,1.09109 2.2922,1.3027 2.2922,1.30271 1.1584,0.4424 1.1584,0.44239 2.23794,1.12365 2.23794,1.12365 0.59531,0.89902 0.59531,0.89903 v 1.1608 1.16081 l -0.4126,0.62971 -0.41261,0.62972 -1.04796,0.41931 -1.04795,0.41931 -0.58996,-0.0221 -0.58996,-0.0222 z m 9.10695,-28.28485 -0.81492,-0.49694 -0.44185,-0.93112 -0.44184,-0.93111 v -0.84607 -0.84607 l 0.4165,-0.87773 0.41651,-0.87772 1.36943,-0.67187 1.36943,-0.67187 3.06994,-1.4326 3.06993,-1.43259 2.08944,-1.34093 2.08944,-1.34093 2.8109,-2.86062 2.8109,-2.86062 1.56764,-2.39528 1.56763,-2.39528 1.08604,-2.23492 1.08605,-2.23493 0.80148,-2.28579 0.80149,-2.28579 0.69517,-3.40275 0.69518,-3.40276 0.41212,-4.36562 0.41213,-4.36563 0.52282,-1.40463 0.52283,-1.40464 1.89339,-1.88164 1.89339,-1.88163 3.63922,-2.72347 3.639213,-2.72347 2.27196,-1.34194 2.27196,-1.34194 2.30789,-1.1591 2.30789,-1.15909 2.89344,-1.24195 2.89343,-1.24194 3.175,-1.03917 3.175,-1.03916 2.51354,-0.63779 2.51355,-0.63779 3.30729,-0.6642 3.30729,-0.66421 4.23333,-0.43024 4.23334,-0.43025 0.19087,-0.18153 0.19087,-0.18154 0.0269,-28.277217 0.0269,-28.277216 -0.28033,-0.173256 -0.28034,-0.173255 -3.90615,0.439365 -3.90614,0.439365 -0.33073,-0.2599 -0.33073,-0.259899 v -0.977915 -0.977914 l -0.41918,-1.437085 -0.41917,-1.437085 -0.52089,-0.898788 -0.52089,-0.898789 0.25693,-0.256935 0.25694,-0.256935 5.51177,-0.62181 5.51178,-0.62181 2.00769,-0.0084 2.00768,-0.0084 1.56419,1.42094 1.56419,1.42094 0.0815,5.259789 0.0815,5.25979 0.26275,0.264583 0.26274,0.264584 h 5.36069 5.36069 l 1.12896,0.745142 1.12895,0.745141 0.37604,0.900006 0.37605,0.900006 v 5.158565 5.158564 l 0.51177,0.273892 0.51178,0.273892 4.84604,4.12e-4 4.84603,4.11e-4 0.9193,0.462609 0.9193,0.46261 0.80049,1.147181 0.8005,1.147182 v 34.61819 34.61819 l -0.54552,0.73078 -0.54551,0.73078 -0.73002,0.54552 -0.73001,0.54551 -2.03176,-0.006 -2.03176,-0.006 -6.87917,-0.97058 -6.87917,-0.97058 -3.70416,-0.27887 -3.70417,-0.27887 -6.08993,-0.001 -6.08993,-0.001 -4.22882,0.27493 -4.22882,0.27492 -3.70417,0.52836 -3.70416,0.52836 -6.49688,1.29739 -6.49688,1.2974 -3.29271,1.11476 -3.2927,1.11476 -2.0944,0.89435 -2.094413,0.89435 -2.27122,1.36537 -2.27122,1.36536 -1.58752,1.60245 -1.58753,1.60245 -1.29977,2.51354 -1.29977,2.51354 -1.8614,2.77813 -1.86141,2.77812 -3.1888,3.18554 -3.1888,3.18553 -2.39345,1.59543 -2.39345,1.59544 -2.86803,1.39722 -2.86803,1.39722 -1.46067,0.50254 -1.46066,0.50254 -1.47994,-9.9e-4 -1.47993,-9.8e-4 z m 38.581413,-37.96802 1.65643,-0.63152 3.04271,-0.9372 3.04271,-0.93719 3.70416,-0.94108 3.70417,-0.94107 5.02708,-0.7687 5.02709,-0.7687 2.24895,-0.30261 2.24896,-0.30261 3.30729,-0.24271 3.3073,-0.24272 5.42395,-0.17478 5.42396,-0.17478 6.08542,0.43622 6.08542,0.43622 4.23333,0.50512 4.23333,0.50512 1.5875,0.0807 1.5875,0.0807 0.0673,-29.48471 0.0673,-29.484715 -0.33189,-0.210716 -0.33188,-0.210715 -2.69637,-0.0041 -2.69636,-0.0041 -0.21406,0.330729 -0.21405,0.330729 -0.13229,24.123958 -0.13229,24.12396 -0.54552,0.73052 -0.54551,0.73053 -0.73091,0.54552 -0.73092,0.54551 -8.64544,-0.0837 -8.64545,-0.0837 -4.10104,0.2831 -4.10104,0.28309 -4.23334,0.66298 -4.23333,0.66296 -5.15938,1.21566 -5.15937,1.21566 -2.51354,0.79715 -2.51354,0.79715 -3.56882,1.59622 -3.56881,1.59623 -2.63606,1.43957 -2.63605,1.43958 -1.123823,0.77321 -1.12382,0.77321 -0.1614,0.26116 -0.16141,0.26116 h 0.40971 0.4097 z m 9.3095,-14.04606 3.15514,-1.25557 2.34405,-0.75339 2.34404,-0.75339 2.70289,-0.65948 2.70289,-0.65948 3.175,-0.5326 3.175,-0.53261 2.77813,-0.39887 2.77812,-0.39887 2.77813,-0.308 2.77812,-0.30801 8.33438,-0.16284 8.33437,-0.16285 V 91.49965 62.660066 l -3.0204,-0.07522 -3.02041,-0.07522 -0.27115,0.271156 -0.27116,0.271157 0.0257,22.029065 0.0257,22.029066 -0.21189,1.92908 -0.2119,1.92908 -0.68831,1.0401 -0.68831,1.04011 -0.83689,0.43277 -0.8369,0.43278 -5.71267,0.48155 -5.71267,0.48156 -2.51354,0.3092 -2.51354,0.3092 -3.57608,0.89659 -3.57607,0.89659 -3.30309,1.20739 -3.30309,1.20738 -1.71979,0.70661 -1.7198,0.70661 -3.43118,1.82291 -3.43118,1.8229 -1.46361,0.93457 -1.46361,0.93457 -1.5875,1.21695 -1.5875,1.21696 -2.050523,1.95582 -2.05052,1.95581 v 0.20952 0.20952 l 5.093233,-2.45771 5.09323,-2.45772 z m -57.394733,17.31088 -2.64583,-0.18989 -4.33623,-0.0311 -4.33623,-0.0311 -3.0721,-0.51668 -3.07211,-0.51667 -4.10104,-0.54208 -4.10104,-0.54209 -3.83646,-0.26023 -3.83646,-0.26024 -5.10979,-0.004 -5.10979,-0.004 -3.88604,0.27731 -3.88604,0.2773 -6.74688,0.78507 -6.74687,0.78508 -1.43766,0.26054 -1.43765,0.26054 -0.9436,-0.006 -0.94359,-0.006 -1.08359,-0.49211 -1.08359,-0.49211 -0.6362,-1.02343 -0.6362,-1.02343 0.0197,-34.41879 0.0196,-34.418789 0.7741,-1.144809 0.7741,-1.144808 1.05833,-0.552029 1.05833,-0.552029 5.02708,-0.06786 5.02709,-0.06786 0.33073,-0.122273 0.33073,-0.122273 v -5.180819 -5.180818 l 0.38737,-0.749095 0.38737,-0.749094 0.81528,-0.686016 0.81529,-0.686016 1.06059,-0.285587 1.06059,-0.285588 4.62501,0.09635 4.62501,0.09635 0.23886,-0.287809 0.23886,-0.287809 0.0828,-5.043628 0.0828,-5.043628 0.73124,-1.05419 0.73124,-1.05419 1.08582,-0.610267 1.08583,-0.610266 2.41627,0.149236 2.41627,0.149236 3.175,0.291153 3.175,0.291152 4.89479,0.66783 4.89479,0.66783 2.68933,0.635434 2.68933,0.635435 4.34149,1.322884 4.34149,1.322885 2.2296,0.819152 2.22959,0.819153 4.49792,2.227809 4.49791,2.22781 2.64583,1.666863 2.64584,1.666863 2.55437,1.913656 2.55436,1.913656 2.0097,2.136317 2.00969,2.136318 v 0.283621 0.283622 l -0.92604,2.864533 -0.92604,2.864533 v 0.351197 0.351196 l -0.3849,0.513591 -0.3849,0.513591 -2.98854,-3.057845 -2.98854,-3.057844 -1.5875,-1.198337 -1.5875,-1.198337 -2.77812,-1.878011 -2.77812,-1.87801 -3.36073,-1.751844 -3.36073,-1.751843 -1.66636,-0.667271 -1.66635,-0.667271 -3.96875,-1.402076 -3.96875,-1.402076 -4.10104,-0.949212 -4.10104,-0.949213 -5.55625,-0.793484 -5.55625,-0.793485 -2.02193,-0.175929 -2.02193,-0.175929 -0.146,0.496925 -0.14599,0.496924 0.005,27.769316 0.005,27.769316 0.23953,0.44757 0.23953,0.44756 1.92357,0.17597 1.92358,0.17597 2.24896,0.26372 2.24896,0.26373 2.77812,0.53408 2.77813,0.53407 3.175,0.78394 3.175,0.78395 2.64583,0.81051 2.64584,0.81051 3.0427,1.19626 3.04271,1.19627 2.11667,1.05456 2.11666,1.05456 3.30729,2.00004 3.3073,2.00003 3.03951,2.27029 3.03951,2.27028 1.78764,1.68428 1.78763,1.68428 0.7783,1.62302 0.77831,1.62301 0.16492,1.32292 0.16493,1.32291 -0.28715,1.85209 -0.28714,1.85208 -0.77232,1.5875 -0.77232,1.5875 -1.04886,1.08924 -1.04885,1.08924 -1.17907,0.57078 -1.17906,0.57078 -1.82154,0.38591 -1.82153,0.3859 -2.51354,-0.039 -2.51354,-0.039 z m 8.33437,-2.89926 -0.66145,-0.51879 -2.11667,-1.29868 -2.11667,-1.29868 -1.85844,-0.92799 -1.85845,-0.928 -3.30093,-1.38278 -3.30092,-1.38277 -3.43959,-1.13264 -3.43958,-1.13263 -4.89479,-1.06765 -4.89479,-1.06765 -3.70417,-0.53292 -3.70417,-0.53292 -4.23333,-0.29344 -4.23333,-0.29343 -8.20209,0.0707 -8.20208,0.0707 -0.58456,-0.32178 -0.58455,-0.32177 -0.73836,-0.96796 -0.73836,-0.96796 -0.0702,-24.15678 -0.0702,-24.156788 -0.55359,-0.296274 -0.5536,-0.296274 -2.49495,0.09071 -2.49494,0.09072 -0.25292,0.396875 -0.25293,0.396875 0.008,29.170316 0.008,29.17031 h 0.98984 0.98983 l 4.22587,-0.53364 4.22587,-0.53364 5.42396,-0.42171 5.42396,-0.42172 7.40833,0.15419 7.40833,0.15419 4.10104,0.41042 4.10105,0.41042 5.36179,0.77819 5.36179,0.77819 4.03092,1.05312 4.03091,1.05312 3.86828,1.20154 3.86827,1.20154 1.15881,0.5142 1.1588,0.51421 0.52917,0.0128 0.52917,0.0128 z m 1.85209,-8.45515 v -0.25444 l -3.05866,-2.58983 -3.05865,-2.58982 -2.03457,-1.40558 -2.03458,-1.40559 -2.24896,-1.26484 -2.24895,-1.26485 -2.77813,-1.26904 -2.77812,-1.26905 -4.23334,-1.3981 -4.23333,-1.39811 -2.64583,-0.66519 -2.64584,-0.66519 -2.77812,-0.40513 -2.77813,-0.40513 -4.89479,-0.40481 -4.89479,-0.4048 -1.37298,-0.28032 -1.37299,-0.28032 -0.71078,-0.5591 -0.71077,-0.5591 -0.49012,-1.07912 -0.49011,-1.07913 -0.006,-23.327843 -0.006,-23.327841 -0.1606,-0.418514 -0.1606,-0.418515 h -3.14787 -3.14788 l 0.0673,28.641147 0.0673,28.641146 7.40834,0.16924 7.40833,0.16925 4.23333,0.43233 4.23334,0.43233 3.70416,0.54087 3.70417,0.54086 3.04271,0.65262 3.04271,0.65262 1.85208,0.54605 1.85208,0.54605 2.38125,0.78889 2.38125,0.78889 3.06427,1.17438 3.06426,1.17437 4.60865,2.33571 4.60865,2.33571 0.19844,0.0406 0.19844,0.0406 z"
       id="path2"
       inkscape:export-filename="culinarium.svg"
       inkscape:export-xdpi="68.82682"
       inkscape:export-ydpi="68.82682" /></g></svg>
